<svg width="24" height="24" viewBox="0 0 24 24" fill="none" xmlns="http://www.w3.org/2000/svg">
<path d="M21.4274 2.5783C20.9274 2.0673 20.1874 1.8783 19.4974 2.0783L3.40742 6.7273C2.67942 6.9293 2.16342 7.5063 2.02442 8.2383C1.88242 8.9843 2.37842 9.9323 3.02642 10.3283L8.05742 13.4003C8.57342 13.7163 9.23942 13.6373 9.66642 13.2093L15.4274 7.4483C15.7174 7.1473 16.1974 7.1473 16.4874 7.4483C16.7774 7.7373 16.7774 8.2083 16.4874 8.5083L10.7164 14.2693C10.2884 14.6973 10.2084 15.3613 10.5234 15.8783L13.5974 20.9283C13.9574 21.5273 14.5774 21.8683 15.2574 21.8683C15.3374 21.8683 15.4274 21.8683 15.5074 21.8573C16.2874 21.7583 16.9074 21.2273 17.1374 20.4773L21.9074 4.5083C22.1174 3.8283 21.9274 3.0883 21.4274 2.5783" fill="#712AFC"/>
</svg>
