<svg xmlns="http://www.w3.org/2000/svg" viewBox="0 0 227.32 93.12"><defs><style>.cls-1{fill:#712afc;}</style></defs><g id="Layer_2" data-name="Layer 2"><g id="Layer_1-2" data-name="Layer 1"><path d="M0,86.49V2A2,2,0,0,1,2,0h3.3a11,11,0,0,1,11,11v75.5A5.25,5.25,0,0,1,11,91.75H5.26A5.25,5.25,0,0,1,0,86.49Z"/><path d="M39.75,85.62A25.38,25.38,0,0,1,31.87,67V39.51a5,5,0,0,1,5-5h5.74a5,5,0,0,1,5,5V67a11.07,11.07,0,0,0,22.13,0V39.51a5,5,0,0,1,5-5h5.73a5,5,0,0,1,5,5V67a26,26,0,0,1-8,18.62,26.64,26.64,0,0,1-18.88,7.5A26.4,26.4,0,0,1,39.75,85.62Z"/><path d="M182.75,91.75a4.13,4.13,0,0,1-4.13-4.13V61.12c0-8.58-9.45-15.91-18-10.81a13.41,13.41,0,0,0-6.36,11.57V87.62a4.13,4.13,0,0,1-4.13,4.13h-7.37a4.13,4.13,0,0,1-4.13-4.13V61.12c0-7.81-7.36-14.28-15.32-12a12.58,12.58,0,0,0-8.93,12.21V87.37A4.38,4.38,0,0,1,110,91.75h-6.87a4.38,4.38,0,0,1-4.38-4.38V38.63A3.78,3.78,0,0,1,100,35.71a2.81,2.81,0,0,1,1.36-.54,18.1,18.1,0,0,1,9,1,17.33,17.33,0,0,1,4.05,2.46,16.53,16.53,0,0,1,12.13-5.26,27.21,27.21,0,0,1,10.75,2.25,33.43,33.43,0,0,1,9,6.25c0,.13.12.13.25.25l.25-.25a29.82,29.82,0,0,1,9-6.25,27.17,27.17,0,0,1,10.75-2.25,27.54,27.54,0,0,1,27.75,27.75v26.5a4.13,4.13,0,0,1-4.13,4.13Z"/><path d="M209.75,87.72V35.92a1.43,1.43,0,0,1,1.42-1.42h2.61A12.22,12.22,0,0,1,226,46.72v41a4,4,0,0,1-4,4h-8.19A4,4,0,0,1,209.75,87.72Z"/><circle class="cls-1" cx="217.82" cy="18.67" r="9.5"/></g></g></svg>