<svg width="33" height="33" viewBox="0 0 33 33" fill="none" xmlns="http://www.w3.org/2000/svg">
<path d="M27.1831 16.0123C26.1787 14.8394 25.7222 13.823 25.7222 12.0961V11.5089C25.7222 9.25861 25.2043 7.80872 24.0783 6.35882C22.3427 4.10711 19.421 2.75 16.5608 2.75H16.4392C13.6391 2.75 10.809 4.0448 9.04337 6.2051C7.85583 7.68408 7.27777 9.1963 7.27777 11.5089V12.0961C7.27777 13.823 6.85141 14.8394 5.81692 16.0123C5.05575 16.8765 4.8125 17.9871 4.8125 19.1891C4.8125 20.3925 5.20744 21.5322 6.00004 22.4586C7.03453 23.5693 8.49538 24.2783 9.98766 24.4015C12.1482 24.648 14.3087 24.7408 16.5007 24.7408C18.6913 24.7408 20.8518 24.5857 23.0137 24.4015C24.5046 24.2783 25.9655 23.5693 27 22.4586C27.7912 21.5322 28.1875 20.3925 28.1875 19.1891C28.1875 17.9871 27.9443 16.8765 27.1831 16.0123Z" stroke ="#712AFC"/>
<path d="M19.2619 26.4389C18.5745 26.2922 14.386 26.2922 13.6987 26.4389C13.111 26.5747 12.4756 26.8904 12.4756 27.5828C12.5097 28.2434 12.8965 28.8264 13.4322 29.1961L13.4308 29.1975C14.1237 29.7376 14.9368 30.081 15.7881 30.2043C16.2418 30.2666 16.7037 30.2638 17.1738 30.2043C18.0238 30.081 18.8369 29.7376 19.5298 29.1975L19.5284 29.1961C20.0641 28.8264 20.4508 28.2434 20.485 27.5828C20.485 26.8904 19.8495 26.5747 19.2619 26.4389Z" stroke="#712AFC"/>
</svg>
