<svg width="16" height="24" viewBox="0 0 16 24" fill="none" xmlns="http://www.w3.org/2000/svg">
<path fill-rule="evenodd" clip-rule="evenodd" d="M8 21.75C4.27208 21.75 1.25 18.7279 1.25 15L1.25 7C1.25 4.37665 3.37665 2.25 6 2.25C8.62335 2.25 10.75 4.37665 10.75 7L10.75 15.1429C10.75 16.6616 9.51878 17.8929 8 17.8929C6.48122 17.8929 5.25 16.6616 5.25 15.1429L5.25 7.28571C5.25 6.8715 5.58579 6.53571 6 6.53571C6.41421 6.53571 6.75 6.8715 6.75 7.28571L6.75 15.1429C6.75 15.8332 7.30964 16.3929 8 16.3929C8.69036 16.3929 9.25 15.8332 9.25 15.1429L9.25 7C9.25 5.20508 7.79493 3.75 6 3.75C4.20507 3.75 2.75 5.20507 2.75 7L2.75 15C2.75 17.8995 5.10051 20.25 8 20.25C10.8995 20.25 13.25 17.8995 13.25 15V7.28571C13.25 6.8715 13.5858 6.53571 14 6.53571C14.4142 6.53571 14.75 6.8715 14.75 7.28571V15C14.75 18.7279 11.7279 21.75 8 21.75Z" fill="#712AFC"/>
</svg>
